#Comment line ignore any data following # character 
#Hierarchical Translation and Rotation (.htr) file 
[Header]	
#Header keywords are followed by a single value 
FileType HTR		#Single word string
DataType HTRS		#Translation followed by rotation and scale data
FileVersion 1		#integer
NumSegments 84		#integer
NumFrames 2		#integer
DataFrameRate 30		#integer, data frame rate in this file
EulerRotationOrder ZYX
CalibrationUnits mm
RotationUnits Degrees
GlobalAxisofGravity Y
BoneLengthAxis Y
ScaleFactor 1.00
[SegmentNames&Hierarchy]
#CHILD	PARENT
MASTER GLOBAL
root MASTER
chest root
L_mid_tent01 root
R_mid_tent01 root
spine01 root
Bip01_Neck chest
L_humerus chest
R_humerus chest
weapon_bone chest
Bip01_Head Bip01_Neck
eye_left_bone Bip01_Head
eye_right_bone Bip01_Head
L_forearm L_humerus
L_front_hand L_forearm
L_weapon_bone L_forearm
L_front_hand01_01 L_front_hand
L_front_hand02_01 L_front_hand
L_front_hand03_01 L_front_hand
L_front_hand01_02 L_front_hand01_01
L_front_hand02_02 L_front_hand02_01
L_front_hand03_02 L_front_hand03_01
R_forearm R_humerus
R_front_hand R_forearm
R_weapon_bone R_forearm
R_front_hand01_01 R_front_hand
R_front_hand02_01 R_front_hand
R_front_hand03_01 R_front_hand
R_front_hand01_02 R_front_hand01_01
R_front_hand02_02 R_front_hand02_01
R_front_hand03_02 R_front_hand03_01
null_rope01_connect L_mid_tent01
Rope1_Seg01 null_rope01_connect
Rope1_Seg02 Rope1_Seg01
Rope1_Seg03 Rope1_Seg02
Rope1_Seg04 Rope1_Seg03
Rope1_Seg05 Rope1_Seg04
Rope1_Seg06 Rope1_Seg05
Rope1_Seg07 Rope1_Seg06
Rope1_Seg09 Rope1_Seg07
L_mid_hand01 Rope1_Seg09
L_mid_hand02 Rope1_Seg09
L_mid_hand03 Rope1_Seg09
null_rope02_connect R_mid_tent01
Rope2_Seg01 null_rope02_connect
Rope2_Seg02 Rope2_Seg01
Rope2_Seg03 Rope2_Seg02
Rope2_Seg04 Rope2_Seg03
Rope2_Seg05 Rope2_Seg04
Rope2_Seg06 Rope2_Seg05
Rope2_Seg07 Rope2_Seg06
Rope2_Seg09 Rope2_Seg07
R_mid_hand01 Rope2_Seg09
R_mid_hand02 Rope2_Seg09
R_mid_hand03 Rope2_Seg09
spine02 spine01
spine03 spine02
pelvis spine03
null_rope03_connect pelvis
null_rope04_connect pelvis
Rope3_Seg01 null_rope03_connect
Rope3_Seg02 Rope3_Seg01
Rope3_Seg03 Rope3_Seg02
Rope3_Seg04 Rope3_Seg03
Rope3_Seg05 Rope3_Seg04
Rope3_Seg06 Rope3_Seg05
Rope3_Seg07 Rope3_Seg06
Rope3_Seg08 Rope3_Seg07
Rope3_Seg09 Rope3_Seg08
R_rear_hand01 Rope3_Seg09
R_rear_hand02 Rope3_Seg09
R_rear_hand03 Rope3_Seg09
Rope4_Seg01 null_rope04_connect
Rope4_Seg02 Rope4_Seg01
Rope4_Seg03 Rope4_Seg02
Rope4_Seg04 Rope4_Seg03
Rope4_Seg05 Rope4_Seg04
Rope4_Seg06 Rope4_Seg05
Rope4_Seg07 Rope4_Seg06
Rope4_Seg08 Rope4_Seg07
Rope4_Seg09 Rope4_Seg08
L_rear_hand01 Rope4_Seg09
L_rear_hand02 Rope4_Seg09
L_rear_hand03 Rope4_Seg09
[BasePosition]
#SegmentName Tx, Ty, Tz, Rx, Ry, Rz, BoneLength
MASTER 0.000000 0.000000 0.000000 -90.000000 0.000000 0.000000 10.000000 
root 0.000000 0.000000 0.000000 0.000000 0.000000 0.000000 10.000000 
chest 0.000000 0.000000 0.000000 0.000000 0.000000 0.000000 10.000000 
L_mid_tent01 0.000000 0.000000 0.000000 0.000000 0.000000 0.000000 10.000000 
R_mid_tent01 0.000000 0.000000 0.000000 0.000000 0.000000 0.000000 10.000000 
spine01 0.000000 0.000000 0.000000 0.000000 0.000000 0.000000 10.000000 
Bip01_Neck 0.000000 0.000000 0.000000 0.000000 0.000000 0.000000 10.000000 
L_humerus 0.000000 0.000000 0.000000 0.000000 0.000000 0.000000 10.000000 
R_humerus 0.000000 0.000000 0.000000 0.000000 0.000000 0.000000 10.000000 
weapon_bone 0.000000 0.000000 0.000000 0.000000 0.000000 0.000000 10.000000 
Bip01_Head 0.000000 0.000000 0.000000 0.000000 0.000000 0.000000 10.000000 
eye_left_bone 0.000000 0.000000 0.000000 0.000000 0.000000 0.000000 10.000000 
eye_right_bone 0.000000 0.000000 0.000000 0.000000 0.000000 0.000000 10.000000 
L_forearm 0.000000 0.000000 0.000000 0.000000 0.000000 0.000000 10.000000 
L_front_hand 0.000000 0.000000 0.000000 0.000000 0.000000 0.000000 10.000000 
L_weapon_bone 0.000000 0.000000 0.000000 0.000000 0.000000 0.000000 10.000000 
L_front_hand01_01 0.000000 0.000000 0.000000 0.000000 0.000000 0.000000 10.000000 
L_front_hand02_01 0.000000 0.000000 0.000000 0.000000 0.000000 0.000000 10.000000 
L_front_hand03_01 0.000000 0.000000 0.000000 0.000000 0.000000 0.000000 10.000000 
L_front_hand01_02 0.000000 0.000000 0.000000 0.000000 0.000000 0.000000 10.000000 
L_front_hand02_02 0.000000 0.000000 0.000000 0.000000 0.000000 0.000000 10.000000 
L_front_hand03_02 0.000000 0.000000 0.000000 0.000000 0.000000 0.000000 10.000000 
R_forearm 0.000000 0.000000 0.000000 0.000000 0.000000 0.000000 10.000000 
R_front_hand 0.000000 0.000000 0.000000 0.000000 0.000000 0.000000 10.000000 
R_weapon_bone 0.000000 0.000000 0.000000 0.000000 0.000000 0.000000 10.000000 
R_front_hand01_01 0.000000 0.000000 0.000000 0.000000 0.000000 0.000000 10.000000 
R_front_hand02_01 0.000000 0.000000 0.000000 0.000000 0.000000 0.000000 10.000000 
R_front_hand03_01 0.000000 0.000000 0.000000 0.000000 0.000000 0.000000 10.000000 
R_front_hand01_02 0.000000 0.000000 0.000000 0.000000 0.000000 0.000000 10.000000 
R_front_hand02_02 0.000000 0.000000 0.000000 0.000000 0.000000 0.000000 10.000000 
R_front_hand03_02 0.000000 0.000000 0.000000 0.000000 0.000000 0.000000 10.000000 
null_rope01_connect 0.000000 0.000000 0.000000 0.000000 0.000000 0.000000 10.000000 
Rope1_Seg01 0.000000 0.000000 0.000000 0.000000 0.000000 0.000000 10.000000 
Rope1_Seg02 0.000000 0.000000 0.000000 0.000000 0.000000 0.000000 10.000000 
Rope1_Seg03 0.000000 0.000000 0.000000 0.000000 0.000000 0.000000 10.000000 
Rope1_Seg04 0.000000 0.000000 0.000000 0.000000 0.000000 0.000000 10.000000 
Rope1_Seg05 0.000000 0.000000 0.000000 0.000000 0.000000 0.000000 10.000000 
Rope1_Seg06 0.000000 0.000000 0.000000 0.000000 0.000000 0.000000 10.000000 
Rope1_Seg07 0.000000 0.000000 0.000000 0.000000 0.000000 0.000000 10.000000 
Rope1_Seg09 0.000000 0.000000 0.000000 0.000000 0.000000 0.000000 10.000000 
L_mid_hand01 0.000000 0.000000 0.000000 0.000000 0.000000 0.000000 10.000000 
L_mid_hand02 0.000000 0.000000 0.000000 0.000000 0.000000 0.000000 10.000000 
L_mid_hand03 0.000000 0.000000 0.000000 0.000000 0.000000 0.000000 10.000000 
null_rope02_connect 0.000000 0.000000 0.000000 0.000000 0.000000 0.000000 10.000000 
Rope2_Seg01 0.000000 0.000000 0.000000 0.000000 0.000000 0.000000 10.000000 
Rope2_Seg02 0.000000 0.000000 0.000000 0.000000 0.000000 0.000000 10.000000 
Rope2_Seg03 0.000000 0.000000 0.000000 0.000000 0.000000 0.000000 10.000000 
Rope2_Seg04 0.000000 0.000000 0.000000 0.000000 0.000000 0.000000 10.000000 
Rope2_Seg05 0.000000 0.000000 0.000000 0.000000 0.000000 0.000000 10.000000 
Rope2_Seg06 0.000000 0.000000 0.000000 0.000000 0.000000 0.000000 10.000000 
Rope2_Seg07 0.000000 0.000000 0.000000 0.000000 0.000000 0.000000 10.000000 
Rope2_Seg09 0.000000 0.000000 0.000000 0.000000 0.000000 0.000000 10.000000 
R_mid_hand01 0.000000 0.000000 0.000000 0.000000 0.000000 0.000000 10.000000 
R_mid_hand02 0.000000 0.000000 0.000000 0.000000 0.000000 0.000000 10.000000 
R_mid_hand03 0.000000 0.000000 0.000000 0.000000 0.000000 0.000000 10.000000 
spine02 0.000000 0.000000 0.000000 0.000000 0.000000 0.000000 10.000000 
spine03 0.000000 0.000000 0.000000 0.000000 0.000000 0.000000 10.000000 
pelvis 0.000000 0.000000 0.000000 0.000000 0.000000 0.000000 10.000000 
null_rope03_connect 0.000000 0.000000 0.000000 0.000000 0.000000 0.000000 10.000000 
null_rope04_connect 0.000000 0.000000 0.000000 0.000000 0.000000 0.000000 10.000000 
Rope3_Seg01 0.000000 0.000000 0.000000 0.000000 0.000000 0.000000 10.000000 
Rope3_Seg02 0.000000 0.000000 0.000000 0.000000 0.000000 0.000000 10.000000 
Rope3_Seg03 0.000000 0.000000 0.000000 0.000000 0.000000 0.000000 10.000000 
Rope3_Seg04 0.000000 0.000000 0.000000 0.000000 0.000000 0.000000 10.000000 
Rope3_Seg05 0.000000 0.000000 0.000000 0.000000 0.000000 0.000000 10.000000 
Rope3_Seg06 0.000000 0.000000 0.000000 0.000000 0.000000 0.000000 10.000000 
Rope3_Seg07 0.000000 0.000000 0.000000 0.000000 0.000000 0.000000 10.000000 
Rope3_Seg08 0.000000 0.000000 0.000000 0.000000 0.000000 0.000000 10.000000 
Rope3_Seg09 0.000000 0.000000 0.000000 0.000000 0.000000 0.000000 10.000000 
R_rear_hand01 0.000000 0.000000 0.000000 0.000000 0.000000 0.000000 10.000000 
R_rear_hand02 0.000000 0.000000 0.000000 0.000000 0.000000 0.000000 10.000000 
R_rear_hand03 0.000000 0.000000 0.000000 0.000000 0.000000 0.000000 10.000000 
Rope4_Seg01 0.000000 0.000000 0.000000 0.000000 0.000000 0.000000 10.000000 
Rope4_Seg02 0.000000 0.000000 0.000000 0.000000 0.000000 0.000000 10.000000 
Rope4_Seg03 0.000000 0.000000 0.000000 0.000000 0.000000 0.000000 10.000000 
Rope4_Seg04 0.000000 0.000000 0.000000 0.000000 0.000000 0.000000 10.000000 
Rope4_Seg05 0.000000 0.000000 0.000000 0.000000 0.000000 0.000000 10.000000 
Rope4_Seg06 0.000000 0.000000 0.000000 0.000000 0.000000 0.000000 10.000000 
Rope4_Seg07 0.000000 0.000000 0.000000 0.000000 0.000000 0.000000 10.000000 
Rope4_Seg08 0.000000 0.000000 0.000000 0.000000 0.000000 0.000000 10.000000 
Rope4_Seg09 0.000000 0.000000 0.000000 0.000000 0.000000 0.000000 10.000000 
L_rear_hand01 0.000000 0.000000 0.000000 0.000000 0.000000 0.000000 10.000000 
L_rear_hand02 0.000000 0.000000 0.000000 0.000000 0.000000 0.000000 10.000000 
L_rear_hand03 0.000000 0.000000 0.000000 0.000000 0.000000 0.000000 10.000000 
#Beginning of Data. Separated by tabs
#Fr	Tx	Ty	Tz	Rx	Ry	Rz	SF
[MASTER]
5 -48.035133 1544.051880 0.000000 0.001660 0.001660 0.001660 1544.798828
6 -60.498608 1950.759888 0.000000 0.001660 0.001660 0.001660 1951.697754
[root]
5 -16.502291 -62.822067 1500.000000 -91.767509 -35.574497 -89.880173 1501.405640
6 -16.502291 -62.822060 1500.000000 -91.767502 -35.574497 -89.880173 1501.405640
[chest]
5 -84.512650 -34.090519 0.000000 5.747375 0.569729 158.134995 91.129311
6 -84.512650 -34.090519 0.000000 8.228711 0.689480 154.147583 91.129311
[L_mid_tent01]
5 27.299427 22.177513 -249.918274 8.998716 47.161301 79.778000 252.381149
6 27.299429 22.177515 -249.918274 12.434434 49.520054 83.865227 252.381149
[R_mid_tent01]
5 23.228794 24.509907 226.238495 171.606888 -30.397751 62.874043 228.744751
6 23.228794 24.509907 226.238495 170.981369 -30.231859 64.116493 228.744751
[spine01]
5 -0.361383 -0.195265 0.000000 0.001845 0.001451 13.654368 0.410763
6 -0.361383 -0.195265 0.000000 0.001845 0.001451 13.654368 0.410763
[Bip01_Neck]
5 165.484543 71.581718 0.000119 176.643677 -1.657967 43.431915 180.302734
6 165.484543 71.581718 0.000119 176.643677 -1.657967 43.431911 180.302734
[L_humerus]
5 -13.983130 -135.272980 -120.471481 160.720947 68.326744 -103.100410 181.680161
6 -13.983130 -135.272980 -120.471481 158.677216 68.388786 -105.838135 181.680161
[R_humerus]
5 -13.983309 -135.273102 125.287651 -169.588821 -63.599483 -90.650894 184.909012
6 -13.983309 -135.273102 125.287651 -166.964890 -63.783878 -94.190094 184.909012
[weapon_bone]
5 235.964890 -300.705902 0.000000 0.000000 -89.951546 -128.212341 382.234833
6 235.964890 -300.705902 0.000000 0.000000 -89.951546 -128.212341 382.234833
[Bip01_Head]
5 213.444275 185.715424 11.776978 6.403481 1.983803 -40.800343 283.173767
6 213.444275 185.715424 11.776978 6.672365 1.879418 -39.182293 283.173767
[eye_left_bone]
5 -24.626970 125.451866 -64.772606 0.000000 -90.000000 -99.840431 143.318359
6 -24.626970 125.451866 -64.772606 0.000000 -90.000000 -99.840431 143.318359
[eye_right_bone]
5 -24.626970 125.451866 64.327362 0.000000 -89.980217 80.156387 143.117676
6 -24.626970 125.451866 64.327362 0.000000 -89.960434 80.156372 143.117676
[L_forearm]
5 322.776093 0.000000 -0.000119 0.000207 -0.002338 -100.140175 322.776093
6 322.776093 0.000000 -0.000119 0.000225 -0.002336 -101.020943 322.776093
[L_front_hand]
5 241.149185 -0.042021 -3.300071 173.579666 -2.068443 -32.627884 241.171753
6 241.149185 -0.042021 -3.300071 170.842346 -2.177428 -32.407669 241.171753
[L_weapon_bone]
5 156.183838 0.000000 0.000000 0.000014 0.000007 0.000001 156.183838
6 156.183838 0.000000 0.000000 0.000014 0.000007 0.000001 156.183838
[L_front_hand01_01]
5 86.095154 20.947098 -0.655860 -0.366594 -0.477154 75.385574 88.609184
6 86.095154 20.947098 -0.655860 -0.366594 -0.477154 75.385574 88.609184
[L_front_hand02_01]
5 86.935165 -11.437475 24.513514 154.399796 -59.883835 -61.369587 91.046425
6 86.935165 -11.437475 24.513514 154.399796 -59.883835 -61.369587 91.046425
[L_front_hand03_01]
5 86.637497 -14.123976 -20.424902 -153.913849 58.118122 -62.702866 90.126129
6 86.637497 -14.123976 -20.424902 -153.913849 58.118122 -62.702866 90.126129
[L_front_hand01_02]
5 71.020905 -0.000179 0.000030 0.000321 -0.002325 -105.734940 71.020905
6 71.020905 -0.000179 0.000030 0.000320 -0.002325 -105.689751 71.020905
[L_front_hand02_02]
5 71.020927 -0.000119 0.000060 0.000321 -0.002325 -105.734940 71.020927
6 71.020927 -0.000119 0.000060 0.000320 -0.002325 -105.689751 71.020927
[L_front_hand03_02]
5 71.020905 -0.000060 0.000060 0.000321 -0.002325 -105.734940 71.020905
6 71.020905 -0.000060 0.000060 0.000320 -0.002325 -105.689751 71.020905
[R_forearm]
5 322.776428 -0.000060 0.000030 0.209483 0.012931 -94.527740 322.776428
6 322.776428 -0.000060 0.000030 0.209521 0.012302 -94.183853 322.776428
[R_front_hand]
5 238.847015 -0.006795 2.210259 -117.525383 -15.549245 -29.210459 238.857239
6 238.847015 -0.006795 2.210259 -153.364685 -12.274590 -26.666752 238.857239
[R_weapon_bone]
5 155.664093 0.002503 -0.000030 0.003487 0.001180 -90.988930 155.664078
6 155.664093 0.002503 -0.000030 0.003487 0.001180 -90.988914 155.664078
[R_front_hand01_01]
5 87.624611 14.231146 22.918642 -154.633499 -59.950619 61.746044 91.683487
6 87.624611 14.231146 22.918642 -154.633514 -59.950634 61.746063 91.683487
[R_front_hand02_01]
5 89.356956 14.367283 -19.491137 154.602661 58.302849 63.744389 92.579636
6 89.356956 14.367283 -19.491137 154.602661 58.302849 63.744389 92.579636
[R_front_hand03_01]
5 87.286232 -22.307278 -0.143439 0.162155 -0.423168 -75.767921 90.091743
6 87.286232 -22.307278 -0.143439 0.162155 -0.423168 -75.767921 90.091743
[R_front_hand01_02]
5 71.020905 0.000060 0.000119 0.002323 -0.000334 106.381706 71.020905
6 71.020905 0.000060 0.000119 0.002323 -0.000334 106.381714 71.020905
[R_front_hand02_02]
5 71.020844 -0.000030 -0.000119 0.002323 -0.000334 106.381706 71.020836
6 71.020844 -0.000030 -0.000119 0.002323 -0.000334 106.381714 71.020836
[R_front_hand03_02]
5 71.020905 0.000000 0.000030 0.002323 -0.000334 106.381706 71.020905
6 71.020905 0.000000 0.000030 0.002323 -0.000334 106.381714 71.020905
[null_rope01_connect]
5 328.732483 0.000000 -0.000238 -122.654778 -40.650635 172.729065 328.732483
6 328.732483 0.000000 -0.000238 -122.703568 -37.804989 170.513779 328.732483
[Rope1_Seg01]
5 -0.000037 0.000036 0.000144 -179.215759 45.671001 -142.159668 0.000153
6 -0.000037 0.000035 0.000142 -161.648651 47.938385 -133.915359 0.000151
[Rope1_Seg02]
5 139.999863 -0.000179 0.000000 8.646667 -13.201428 4.248405 139.999863
6 139.999863 -0.000179 0.000000 0.266887 -6.327673 6.503945 139.999863
[Rope1_Seg03]
5 139.999924 0.000060 -0.000060 5.046075 -19.024570 8.643020 139.999924
6 139.999924 0.000060 -0.000060 -0.244322 -7.492868 8.068346 139.999924
[Rope1_Seg04]
5 139.999924 -0.000060 -0.000119 -7.091061 -28.328926 30.071827 139.999924
6 139.999924 -0.000060 -0.000119 -0.585114 -12.099891 12.191696 139.999924
[Rope1_Seg05]
5 139.999832 0.000119 -0.000060 -7.605949 -24.881311 27.593117 139.999832
6 139.999832 0.000119 -0.000060 -4.015870 -21.387753 22.905640 139.999832
[Rope1_Seg06]
5 139.999954 0.000119 -0.000060 -1.691675 -7.108879 6.637016 139.999954
6 139.999954 0.000119 -0.000060 -1.250197 -10.910532 11.243085 139.999954
[Rope1_Seg07]
5 139.999985 0.000060 0.000000 -0.058230 -0.265289 0.234240 139.999985
6 139.999985 0.000060 0.000000 0.006605 0.001660 0.001660 139.999985
[Rope1_Seg09]
5 121.602913 0.000119 -0.000089 -89.793175 -1.359789 0.847147 121.602913
6 121.602913 0.000119 -0.000089 -89.793175 -1.359789 0.847147 121.602913
[L_mid_hand01]
5 103.859421 1.038730 8.195221 130.095490 -67.358856 -38.382183 104.187431
6 103.859421 1.038730 8.195221 130.544373 -67.584534 -38.866943 104.187431
[L_mid_hand02]
5 105.572853 -4.139662 -10.864139 -168.652405 43.348949 -73.107704 106.211075
6 105.572853 -4.139662 -10.864139 -168.923172 43.409309 -73.498886 106.211075
[L_mid_hand03]
5 104.641464 17.579376 -3.913581 -6.108395 17.779198 74.588531 106.179977
6 104.641464 17.579376 -3.913581 -6.012627 17.808174 74.893669 106.179977
[null_rope02_connect]
5 328.732849 0.000179 -0.000119 -98.934471 59.711071 16.430689 328.732849
6 328.732849 0.000179 -0.000119 -98.931816 59.712273 17.514959 328.732849
[Rope2_Seg01]
5 0.000040 0.000144 0.000000 -108.710541 31.438633 -29.130470 0.000150
6 0.000041 0.000142 0.000000 -116.445038 36.092178 -28.540812 0.000148
[Rope2_Seg02]
5 139.999741 -0.000060 -0.000119 -16.720036 -8.028627 13.609567 139.999756
6 139.999741 -0.000060 -0.000119 -13.195088 -6.641372 11.357992 139.999756
[Rope2_Seg03]
5 140.000107 0.000030 0.000000 -10.897957 -20.244120 19.960308 140.000107
6 140.000107 0.000030 0.000000 -6.964183 -11.860342 11.801877 140.000107
[Rope2_Seg04]
5 139.999802 0.000000 -0.000060 -7.028979 -26.640179 21.904507 139.999802
6 139.999802 0.000000 -0.000060 -6.617476 -16.803570 16.778761 139.999802
[Rope2_Seg05]
5 139.999985 -0.000060 0.000119 -1.441611 -20.855947 16.317114 139.999985
6 139.999985 -0.000060 0.000119 -4.562236 -19.344135 20.666553 139.999985
[Rope2_Seg06]
5 139.999893 -0.000030 -0.000119 1.246250 -8.997669 6.977898 139.999893
6 139.999893 -0.000030 -0.000119 0.262380 -10.117747 9.527332 139.999893
[Rope2_Seg07]
5 139.999893 0.000060 -0.000060 1.235549 -4.542894 3.725127 139.999893
6 139.999893 0.000060 -0.000060 0.856456 -5.281162 5.103112 139.999893
[Rope2_Seg09]
5 121.338966 0.000089 -0.000060 33.793236 -1.359788 -0.847141 121.338966
6 121.338966 0.000089 -0.000060 33.793236 -1.359788 -0.847141 121.338966
[R_mid_hand01]
5 104.680779 11.144459 -10.335981 -16.480762 45.159000 70.079010 105.778534
6 104.680779 11.144459 -10.335981 -16.212063 45.237247 70.462852 105.778534
[R_mid_hand02]
5 104.070427 2.443552 8.231699 49.518703 -67.538940 38.801071 104.424065
6 104.070427 2.443552 8.231699 49.067368 -67.749771 39.286453 104.424065
[R_mid_hand03]
5 106.028137 -11.221827 -5.996406 -177.019348 15.538846 -76.294624 106.788818
6 106.028137 -11.221827 -5.996406 -177.101105 15.551026 -76.585571 106.788818
[spine02]
5 129.756927 0.001550 0.000119 -1.023900 -3.926965 6.770994 129.756927
6 129.756927 0.001550 0.000119 -1.023899 -3.926964 6.770991 129.756927
[spine03]
5 78.613846 0.087372 -4.898873 1.040680 4.146420 4.212376 78.766380
6 78.613846 0.087372 -4.898873 1.040681 4.146420 4.212376 78.766380
[pelvis]
5 169.435242 0.051022 0.000000 0.019518 -0.190233 -10.721436 169.435257
6 169.435242 0.051022 0.000000 0.019518 -0.190233 -10.721436 169.435257
[null_rope03_connect]
5 -1.257226 -2.466202 137.391083 -147.775772 -87.997871 -100.479530 137.418976
6 -1.257226 -2.466202 137.391083 -147.775742 -87.997871 -100.479507 137.418976
[null_rope04_connect]
5 -1.259640 -2.480268 -137.844437 -147.775772 -87.997871 -100.479530 137.872513
6 -1.259640 -2.480268 -137.844437 -147.775742 -87.997871 -100.479507 137.872513
[Rope3_Seg01]
5 -0.000028 -0.000055 -0.000008 -147.774307 -39.808151 -55.844528 0.000062
6 -0.000028 -0.000050 -0.000011 -148.025436 -39.610977 -55.293011 0.000058
[Rope3_Seg02]
5 139.999924 -0.000119 0.000060 -17.961441 4.197831 -28.785963 139.999924
6 139.999924 -0.000119 0.000060 -17.810934 4.618541 -27.977495 139.999924
[Rope3_Seg03]
5 139.999924 -0.000119 0.000119 -51.057056 13.800965 -35.365337 139.999924
6 139.999924 -0.000119 0.000119 -52.733364 15.024316 -36.798088 139.999924
[Rope3_Seg04]
5 139.999924 0.000119 0.000000 -38.222851 44.977890 -13.795503 139.999924
6 139.999924 0.000119 0.000000 -34.326153 43.300011 -11.212374 139.999924
[Rope3_Seg05]
5 139.999924 -0.000238 0.000060 -1.811705 19.499687 7.671640 139.999924
6 139.999924 -0.000238 0.000060 -2.027772 17.566544 6.584578 139.999924
[Rope3_Seg06]
5 139.999893 -0.000119 -0.000060 0.286273 5.642294 2.358090 139.999893
6 139.999893 -0.000119 -0.000060 0.153754 5.417273 2.167796 139.999893
[Rope3_Seg07]
5 139.999771 0.000060 -0.000119 0.537858 3.181171 1.312906 139.999771
6 139.999771 0.000060 -0.000119 0.460415 3.093295 1.231209 139.999771
[Rope3_Seg08]
5 139.999985 -0.000060 0.000000 0.586764 1.793371 0.723122 139.999985
6 139.999985 -0.000060 0.000000 0.538833 1.749353 0.680117 139.999985
[Rope3_Seg09]
5 90.185997 -0.000179 -0.000060 89.793228 -1.359877 -0.847183 90.185997
6 90.185997 -0.000179 -0.000060 89.793228 -1.359877 -0.847183 90.185997
[R_rear_hand01]
5 103.366196 -6.073594 -10.757982 -177.574921 24.553762 -73.582504 104.101845
6 103.366196 -6.073594 -10.757982 -177.714203 24.565960 -73.910950 104.101845
[R_rear_hand02]
5 100.509819 12.039542 -7.992327 -13.089580 36.801193 71.803032 101.543350
6 100.509819 12.039542 -7.992327 -12.874829 36.868488 72.167213 101.543350
[R_rear_hand03]
5 101.539970 5.215704 5.435467 71.770485 -71.527267 21.210228 101.819031
6 101.539970 5.215704 5.435467 71.484581 -71.816628 21.513813 101.819031
[Rope4_Seg01]
5 0.000000 0.000000 0.000000 80.434151 -42.455528 -144.158951 0.000000
6 0.000000 0.000000 0.000000 78.390717 -39.266548 -145.010071 0.000000
[Rope4_Seg02]
5 139.999985 0.000060 0.000119 16.682499 -18.931925 6.258337 139.999985
6 139.999985 0.000060 0.000119 14.455701 -16.783360 4.426666 139.999985
[Rope4_Seg03]
5 139.999924 0.000000 -0.000238 49.330563 -31.284777 27.245152 139.999924
6 139.999924 0.000000 -0.000238 53.375019 -31.920469 21.811234 139.999924
[Rope4_Seg04]
5 139.999985 0.000000 0.000119 21.174021 2.071894 30.859098 139.999985
6 139.999985 0.000000 0.000119 26.646255 1.432451 35.712513 139.999985
[Rope4_Seg05]
5 139.999802 -0.000060 -0.000119 5.490354 1.410075 12.976043 139.999802
6 139.999802 -0.000060 -0.000119 5.151528 1.392632 11.629802 139.999802
[Rope4_Seg06]
5 139.999924 0.000000 0.000060 2.723790 0.349818 8.080434 139.999924
6 139.999924 0.000000 0.000060 2.899872 -2.329567 6.349115 139.999924
[Rope4_Seg07]
5 139.999802 0.000000 0.000000 1.321082 1.320978 4.940019 139.999802
6 139.999802 0.000000 0.000000 1.781042 0.294264 4.741190 139.999802
[Rope4_Seg08]
5 139.999924 0.000000 0.000119 -0.887282 0.845387 2.898708 139.999924
6 139.999924 0.000000 0.000119 -0.586358 0.422075 2.878252 139.999924
[Rope4_Seg09]
5 90.185791 0.000060 0.000060 -135.617828 2.228885 0.850567 90.185791
6 90.185791 0.000060 0.000060 -135.617828 2.228885 0.850567 90.185791
[L_rear_hand01]
5 101.696655 -8.392275 -7.654577 -13.100018 -36.799313 108.206543 102.329041
6 101.696655 -8.392275 -7.654577 -12.874829 -36.868488 107.832764 102.329041
[L_rear_hand02]
5 102.726799 -1.568258 5.773216 71.770462 71.527245 158.789749 102.900848
6 102.726799 -1.568258 5.773216 71.484581 71.816628 158.486160 102.900848
[L_rear_hand03]
5 104.552910 9.721220 -10.420293 -177.573471 -24.553633 -106.424133 105.519653
6 104.552910 9.721220 -10.420293 -177.714203 -24.565960 -106.089035 105.519653
